<svg xmlns:xlink="http://www.w3.org/1999/xlink" xmlns="http://www.w3.org/2000/svg" width="120" height="40" viewBox="0 0 120 45" class="svg-wrapper--8ky9e"><defs><path id="app-store_svg__a" d="M0 .04h119.664V40H0z"></path><path id="app-store_svg__a" d="M0 .04h119.664V40H0z"></path></defs><g fill="none" fill-rule="evenodd"><g fill="none"><mask id="app-store_svg__b" fill="#FFFFFF"><use xlink:href="#app-store_svg__a" fill="#FFFFFF"></use></mask><path d="M110.134 0H9.535c-.367 0-.729 0-1.095.002-.306.002-.61.008-.919.013-.666.016-1.339.057-2.004.176a6.444 6.444 0 0 0-5.323 5.33c-.12.663-.162 1.333-.179 2.002-.009.307-.01.615-.015.921v23.115c.005.31.006.611.015.921.017.67.059 1.34.179 2.002.117.67.314 1.298.625 1.905.304.595.7 1.144 1.179 1.614.473.478 1.02.875 1.618 1.179.61.312 1.232.51 1.901.631.665.119 1.338.158 2.004.176.309.007.613.011.919.011.366.002.728.002 1.095.002h100.599c.361 0 .725 0 1.084-.002.306 0 .618-.004.923-.011.67-.018 1.342-.057 2-.176a6.826 6.826 0 0 0 1.908-.631 6.31 6.31 0 0 0 1.618-1.179 6.427 6.427 0 0 0 1.18-1.614 6.565 6.565 0 0 0 .619-1.905c.124-.662.162-1.332.187-2.002.003-.31.003-.611.003-.921.008-.364.008-.725.008-1.094V9.536c0-.366 0-.729-.008-1.092 0-.306 0-.614-.003-.921-.025-.669-.063-1.339-.187-2.002a6.582 6.582 0 0 0-.619-1.903 6.482 6.482 0 0 0-1.18-1.621 6.48 6.48 0 0 0-1.618-1.179 6.817 6.817 0 0 0-1.908-.627c-.658-.119-1.33-.16-2-.176-.305-.005-.617-.011-.923-.013C110.859 0 110.495 0 110.134 0" fill="#A9AAA9" mask="url(#app-store_svg__b)"></path></g><path d="M8.445 39.125c-.305 0-.602-.004-.904-.011-.56-.015-1.223-.047-1.87-.163a5.865 5.865 0 0 1-1.656-.548 5.374 5.374 0 0 1-1.397-1.016 5.33 5.33 0 0 1-1.021-1.397 5.752 5.752 0 0 1-.543-1.657c-.122-.673-.153-1.355-.166-1.875a76.305 76.305 0 0 1-.015-.913V8.444s.009-.691.015-.894c.013-.524.044-1.206.165-1.872a5.725 5.725 0 0 1 .544-1.662 5.338 5.338 0 0 1 1.015-1.398 5.568 5.568 0 0 1 3.055-1.567C6.341.931 7.023.9 7.543.887l.902-.012h102.768l.913.013c.513.012 1.196.043 1.859.162a5.963 5.963 0 0 1 1.671.548c.513.263.982.606 1.391 1.016.411.406.752.878 1.024 1.404.258.511.433 1.053.536 1.649.115.631.151 1.279.173 1.887.003.283.003.588.003.89.009.375.009.732.009 1.092v20.929c0 .363 0 .718-.009 1.075 0 .325 0 .623-.004.93-.021.589-.057 1.236-.171 1.853a5.751 5.751 0 0 1-.54 1.67c-.269.52-.612.989-1.015 1.386a5.434 5.434 0 0 1-1.399 1.022 5.86 5.86 0 0 1-1.669.55c-.64.116-1.303.148-1.869.163-.292.007-.6.011-.898.011l-1.084.002-101.689-.002" fill="#000"></path><path d="M24.769 20.301c-.025-2.751 2.252-4.09 2.357-4.153-1.29-1.88-3.29-2.137-3.992-2.157-1.679-.177-3.307 1.005-4.163 1.005-.872 0-2.189-.988-3.608-.958-1.826.028-3.536 1.086-4.473 2.728-1.934 3.348-.491 8.269 1.361 10.975.927 1.326 2.01 2.807 3.428 2.754 1.387-.057 1.905-.885 3.579-.885 1.659 0 2.145.885 3.591.852 1.488-.024 2.426-1.332 3.321-2.67 1.071-1.519 1.501-3.016 1.518-3.092-.035-.012-2.891-1.101-2.919-4.399M22.037 12.211c.746-.933 1.256-2.202 1.115-3.491-1.08.048-2.43.747-3.208 1.66-.688.804-1.302 2.122-1.144 3.361 1.213.091 2.459-.612 3.237-1.53M38.059 25.591h3.752l-1.85-5.447h-.051l-1.851 5.447zm4.243 1.549h-4.733l-1.137 3.356h-2.005l4.484-12.418h2.083l4.483 12.418h-2.039l-1.136-3.356zM53.25 25.97c0-1.833-.948-3.038-2.393-3.038-1.42 0-2.375 1.23-2.375 3.038 0 1.824.955 3.046 2.375 3.046 1.445 0 2.393-1.197 2.393-3.046zm1.91 0c0 2.813-1.506 4.621-3.779 4.621-1.29 0-2.314-.577-2.848-1.584h-.043v4.484h-1.859V21.442h1.799v1.506h.034c.517-.971 1.619-1.6 2.883-1.6 2.298 0 3.813 1.816 3.813 4.622zM63.214 25.97c0-1.833-.947-3.038-2.392-3.038-1.42 0-2.375 1.23-2.375 3.038 0 1.824.955 3.046 2.375 3.046 1.445 0 2.392-1.197 2.392-3.046zm1.91 0c0 2.813-1.505 4.621-3.778 4.621-1.29 0-2.314-.577-2.848-1.584h-.043v4.484h-1.859V21.442h1.799v1.506h.034c.517-.971 1.618-1.6 2.883-1.6 2.298 0 3.812 1.816 3.812 4.622zM71.711 27.036c.137 1.232 1.334 2.04 2.968 2.04 1.567 0 2.694-.808 2.694-1.919 0-.964-.68-1.541-2.289-1.936l-1.61-.388c-2.28-.551-3.339-1.617-3.339-3.348 0-2.142 1.868-3.614 4.519-3.614 2.624 0 4.423 1.472 4.483 3.614h-1.876c-.112-1.239-1.137-1.987-2.633-1.987-1.498 0-2.522.757-2.522 1.858 0 .878.654 1.395 2.255 1.791l1.368.335c2.548.603 3.607 1.626 3.607 3.443 0 2.323-1.851 3.778-4.794 3.778-2.754 0-4.614-1.421-4.734-3.667h1.903M83.346 19.3v2.142h1.722v1.472h-1.722v4.991c0 .776.345 1.137 1.102 1.137a5.7 5.7 0 0 0 .611-.043v1.463c-.206.052-.619.086-1.032.086-1.833 0-2.548-.689-2.548-2.444v-5.19h-1.316v-1.472h1.316V19.3h1.867M92.76 25.97c0-1.954-.895-3.108-2.401-3.108-1.506 0-2.4 1.162-2.4 3.108 0 1.962.894 3.106 2.4 3.106 1.506 0 2.401-1.144 2.401-3.106zm-6.695 0c0-2.849 1.678-4.639 4.294-4.639 2.625 0 4.295 1.79 4.295 4.639 0 2.856-1.661 4.638-4.295 4.638-2.633 0-4.294-1.782-4.294-4.638zM96.186 21.442h1.773v1.541h.043c.284-1.024 1.11-1.635 2.177-1.635.267 0 .49.035.637.069v1.738c-.147-.06-.474-.112-.835-.112-1.196 0-1.936.81-1.936 2.083v5.37h-1.859v-9.054M103.102 25.135h4.526c-.043-1.386-.929-2.298-2.22-2.298-1.282 0-2.211.93-2.306 2.298zm6.282 2.702c-.25 1.644-1.85 2.771-3.898 2.771-2.634 0-4.269-1.764-4.269-4.595 0-2.84 1.644-4.682 4.191-4.682 2.505 0 4.08 1.721 4.08 4.466v.637h-6.395v.112c0 1.549.973 2.564 2.436 2.564 1.032 0 1.842-.49 2.091-1.273h1.764zM36.598 13.854h1.125c1.248 0 1.967-.777 1.967-2.146 0-1.348-.731-2.134-1.967-2.134h-1.125v4.28zm1.228-5.123c1.77 0 2.808 1.087 2.808 2.965 0 1.906-1.03 3.002-2.808 3.002h-2.155V8.731h2.155zM45.014 12.444c0-.976-.439-1.546-1.208-1.546-.773 0-1.207.57-1.207 1.546 0 .984.434 1.551 1.207 1.551.769 0 1.208-.571 1.208-1.551zm-3.333 0c0-1.451.81-2.336 2.125-2.336 1.311 0 2.122.885 2.122 2.336 0 1.46-.807 2.341-2.122 2.341-1.319 0-2.125-.881-2.125-2.341zM51.573 14.698h-.922l-.93-3.317h-.071l-.926 3.317h-.913l-1.242-4.503h.902l.806 3.436h.067l.926-3.436h.852l.926 3.436h.07l.803-3.436h.889l-1.237 4.503M53.854 10.195h.855v.715h.066c.219-.5.666-.802 1.344-.802 1.005 0 1.559.603 1.559 1.675v2.915h-.889v-2.692c0-.724-.314-1.084-.972-1.084-.657 0-1.075.439-1.075 1.141v2.635h-.888v-4.503M59.094 14.698h.889V8.437h-.889zM64.551 12.444c0-.976-.439-1.546-1.208-1.546-.773 0-1.207.57-1.207 1.546 0 .984.434 1.551 1.207 1.551.769 0 1.208-.571 1.208-1.551zm-3.333 0c0-1.451.81-2.336 2.125-2.336 1.311 0 2.122.885 2.122 2.336 0 1.46-.807 2.341-2.122 2.341-1.319 0-2.125-.881-2.125-2.341zM69.295 13.04v-.377l-1.099.07c-.62.042-.901.253-.901.65 0 .405.351.641.834.641.67 0 1.166-.426 1.166-.984zm-2.894.384c0-.81.603-1.278 1.675-1.344l1.219-.07v-.389c0-.475-.314-.744-.921-.744-.496 0-.84.182-.939.5h-.86c.091-.773.818-1.269 1.84-1.269 1.129 0 1.765.562 1.765 1.513v3.077h-.855v-.633h-.071c-.268.451-.76.707-1.352.707-.868 0-1.501-.525-1.501-1.348zM72.266 12.444c0 .955.45 1.53 1.203 1.53.749 0 1.212-.583 1.212-1.526 0-.938-.468-1.53-1.212-1.53-.748 0-1.203.579-1.203 1.526zm-.918 0c0-1.423.732-2.324 1.869-2.324.617 0 1.137.294 1.381.79h.067V8.437h.888v6.261h-.851v-.712h-.071c-.268.493-.794.786-1.414.786-1.145 0-1.869-.901-1.869-2.328zM82.563 12.444c0-.976-.439-1.546-1.208-1.546-.773 0-1.207.57-1.207 1.546 0 .984.434 1.551 1.207 1.551.769 0 1.208-.571 1.208-1.551zm-3.333 0c0-1.451.811-2.336 2.125-2.336 1.311 0 2.122.885 2.122 2.336 0 1.46-.807 2.341-2.122 2.341-1.318 0-2.125-.881-2.125-2.341zM84.67 10.195h.855v.715h.066c.219-.5.666-.802 1.344-.802 1.005 0 1.559.603 1.559 1.675v2.915h-.889v-2.692c0-.724-.314-1.084-.972-1.084-.657 0-1.075.439-1.075 1.141v2.635h-.888v-4.503M93.515 9.074v1.141h.976v.749h-.976v2.315c0 .472.195.679.637.679.137 0 .215-.009.339-.021v.74a2.862 2.862 0 0 1-.484.046c-.988 0-1.381-.348-1.381-1.216v-2.543h-.715v-.749h.715V9.074h.889M95.705 8.437h.881v2.481h.07c.218-.504.694-.806 1.373-.806.959 0 1.551.608 1.551 1.679v2.907h-.89V12.01c0-.719-.335-1.084-.963-1.084-.728 0-1.134.46-1.134 1.142v2.63h-.888V8.437M101.635 12.031h2.275c-.021-.707-.451-1.167-1.109-1.167-.657 0-1.116.464-1.166 1.167zm3.126 1.451c-.202.807-.922 1.303-1.951 1.303-1.29 0-2.08-.885-2.08-2.325 0-1.439.807-2.352 2.076-2.352 1.253 0 2.009.856 2.009 2.27v.31h-3.18v.05c.03.789.489 1.29 1.199 1.29.539 0 .907-.195 1.072-.546h.855z" fill="#FFFFFE"></path></g></svg>