<svg xmlns:xlink="http://www.w3.org/1999/xlink" xmlns="http://www.w3.org/2000/svg" width="180" height="53.333" viewBox="0 0 180 53.333" class="svg-wrapper--8ky9e"><path d="M173.333 53.333H6.667C3 53.333 0 50.333 0 46.667v-40C0 3 3 0 6.667 0h166.666C177 0 180 3 180 6.667v40c0 3.666-3 6.666-6.667 6.666" fill="#100F0D"></path><path d="M173.333 0H6.667C3 0 0 3 0 6.667v40c0 3.666 3 6.666 6.667 6.666h166.666c3.667 0 6.667-3 6.667-6.666v-40C180 3 177 0 173.333 0zm0 1.066c3.088 0 5.6 2.513 5.6 5.6v40c0 3.089-2.512 5.601-5.6 5.601H6.667a5.606 5.606 0 0 1-5.6-5.6v-40c0-3.088 2.512-5.6 5.6-5.6h166.666" fill="#A2A2A1"></path><text transform="matrix(1.33333 0 0 1.33333 54.721 17.333)" font-weight="400" font-size="8.38" font-family="ProductSans" fill="#FFFFFF"><tspan x="0 6.8798785 11.588861 16.282219 18.292965 20.438473 25.131832 26.974602 33.930656" y="0" fill="#FFFFFF">GET IT ON</tspan></text><path d="M63.157 13.06h-3.871v.959h2.9c-.077.781-.39 1.396-.915 1.841-.525.446-1.193.67-1.985.67-.87 0-1.608-.3-2.21-.903-.592-.614-.892-1.373-.892-2.287 0-.917.3-1.675.891-2.288.603-.604 1.34-.904 2.211-.904.446 0 .869.077 1.26.246.39.166.702.4.948.702l.736-.736a3.34 3.34 0 0 0-1.282-.883 4.4 4.4 0 0 0-1.662-.31c-1.16 0-2.144.4-2.946 1.204-.804.804-1.206 1.796-1.206 2.969 0 1.17.402 2.164 1.206 2.966.802.804 1.785 1.207 2.946 1.207 1.215 0 2.185-.392 2.933-1.184.659-.658.994-1.55.994-2.666 0-.19-.023-.392-.056-.603zm1.542-3.716v7.99h4.662v-.982h-3.637V13.82h3.281v-.96h-3.281v-2.532h3.637v-.983zm11.233.983v-.983h-5.49v.983h2.231v7.006h1.025v-7.006zm5.01-.983h-1.026v7.99h1.025zm6.79.983v-.983h-5.49v.983h2.23v7.006h1.026v-7.006zm10.397.054c-.792-.814-1.762-1.214-2.923-1.214-1.16 0-2.13.4-2.923 1.204-.791.792-1.183 1.785-1.183 2.969 0 1.18.392 2.175 1.183 2.966.792.804 1.763 1.207 2.923 1.207 1.15 0 2.131-.403 2.923-1.207.794-.791 1.184-1.785 1.184-2.966 0-1.173-.39-2.165-1.184-2.959zm-5.11.671c.591-.604 1.316-.904 2.187-.904.871 0 1.596.3 2.177.904.59.592.882 1.36.882 2.288 0 .925-.292 1.695-.882 2.287-.58.602-1.306.902-2.177.902-.87 0-1.596-.3-2.187-.902-.58-.604-.869-1.362-.869-2.287 0-.927.29-1.686.869-2.288zm8.773 1.304l-.044-1.54h.044l4.062 6.517h1.071v-7.99h-1.027v4.676l.046 1.54h-.046l-3.883-6.215h-1.248v7.99h1.025z" fill="none" stroke="#FFFFFF" stroke-width="0.26666px" stroke-miterlimit="10"></path><path d="M142.581 40h2.488V23.331h-2.488zm22.41-10.664l-2.852 7.227h-.086l-2.96-7.227h-2.68l4.44 10.1-2.532 5.619h2.595l6.841-15.719zm-14.111 8.77c-.813 0-1.95-.407-1.95-1.415 0-1.286 1.415-1.78 2.637-1.78 1.093 0 1.609.236 2.273.558a3.017 3.017 0 0 1-2.96 2.638zm.301-9.135c-1.801 0-3.666.794-4.438 2.552l2.208.922c.472-.922 1.35-1.222 2.273-1.222 1.287 0 2.595.772 2.616 2.145v.171c-.45-.257-1.416-.643-2.595-.643-2.381 0-4.804 1.308-4.804 3.752 0 2.23 1.952 3.668 4.139 3.668 1.672 0 2.596-.75 3.173-1.63h.087v1.287h2.403v-6.391c0-2.96-2.211-4.61-5.062-4.61zm-15.376 2.394h-3.538v-5.713h3.538c1.86 0 2.916 1.54 2.916 2.856 0 1.292-1.056 2.857-2.916 2.857zm-.064-8.034h-5.961V40h2.487v-6.315h3.474c2.758 0 5.468-1.996 5.468-5.177 0-3.18-2.71-5.177-5.468-5.177zM103.233 38.11c-1.719 0-3.158-1.44-3.158-3.415 0-1.999 1.439-3.459 3.158-3.459 1.697 0 3.028 1.46 3.028 3.459 0 1.975-1.331 3.415-3.028 3.415zm2.857-7.84h-.086c-.559-.666-1.633-1.268-2.986-1.268-2.836 0-5.435 2.492-5.435 5.693 0 3.178 2.6 5.649 5.435 5.649 1.353 0 2.427-.602 2.986-1.289h.086v.816c0 2.17-1.16 3.33-3.03 3.33-1.524 0-2.469-1.096-2.856-2.02l-2.17.903c.623 1.503 2.277 3.35 5.027 3.35 2.922 0 5.392-1.718 5.392-5.907V29.346h-2.363zm4.082 9.73h2.49V23.331h-2.49zm6.164-5.499c-.064-2.191 1.698-3.308 2.965-3.308.988 0 1.825.494 2.105 1.203zm7.733-1.89c-.473-1.267-1.912-3.609-4.854-3.609-2.922 0-5.35 2.299-5.35 5.67 0 3.18 2.407 5.672 5.628 5.672 2.6 0 4.103-1.59 4.727-2.513l-1.934-1.29c-.644.946-1.525 1.569-2.793 1.569-1.266 0-2.169-.58-2.748-1.719l7.582-3.136zm-60.41-1.869v2.406h5.756c-.172 1.353-.623 2.341-1.31 3.029-.838.837-2.149 1.761-4.447 1.761-3.544 0-6.315-2.857-6.315-6.401 0-3.544 2.771-6.402 6.315-6.402 1.912 0 3.308.752 4.34 1.72l1.697-1.698c-1.44-1.375-3.351-2.427-6.037-2.427-4.855 0-8.936 3.952-8.936 8.807 0 4.854 4.081 8.807 8.936 8.807 2.62 0 4.597-.86 6.144-2.47 1.59-1.59 2.083-3.824 2.083-5.629 0-.558-.043-1.073-.129-1.503zM78.43 38.11c-1.719 0-3.2-1.418-3.2-3.437 0-2.04 1.481-3.437 3.2-3.437 1.718 0 3.2 1.396 3.2 3.437 0 2.02-1.482 3.437-3.2 3.437zm0-9.108c-3.137 0-5.693 2.384-5.693 5.67 0 3.266 2.556 5.672 5.693 5.672 3.136 0 5.692-2.406 5.692-5.671 0-3.287-2.556-5.67-5.692-5.67zm12.417 9.108c-1.717 0-3.2-1.418-3.2-3.437 0-2.04 1.483-3.437 3.2-3.437 1.72 0 3.2 1.396 3.2 3.437 0 2.02-1.48 3.437-3.2 3.437zm0-9.108c-3.136 0-5.691 2.384-5.691 5.67 0 3.266 2.555 5.672 5.691 5.672 3.137 0 5.693-2.406 5.693-5.671 0-3.287-2.556-5.67-5.693-5.67" fill="#FFFFFF"></path><path d="M27.623 25.899L13.428 40.966l.002.008a3.833 3.833 0 0 0 5.648 2.313l.045-.027 15.98-9.22-7.48-8.141" fill="#EB3131"></path><path d="M41.984 23.333l-.013-.009-6.899-4-7.771 6.917 7.798 7.798 6.862-3.96a3.836 3.836 0 0 0 .023-6.746" fill="#F6B60B"></path><path d="M13.427 12.37c-.085.314-.13.644-.13.986V39.98c0 .341.044.672.13.986l14.684-14.682L13.427 12.37" fill="#5778C5"></path><path d="M27.728 26.668l7.347-7.346-15.96-9.253a3.843 3.843 0 0 0-5.687 2.297v.004l14.3 14.298" fill="#3BAD49"></path></svg>